<svg width="25" height="24" viewBox="0 0 25 24" fill="none" xmlns="http://www.w3.org/2000/svg">
<path fill-rule="evenodd" clip-rule="evenodd" d="M7.59153 16.0029C7.43153 16.0029 7.27053 15.9519 7.13453 15.8479C6.80653 15.5949 6.74453 15.1239 6.99753 14.7959L9.99053 10.9059C10.1125 10.7469 10.2935 10.6439 10.4915 10.6189C10.6935 10.5929 10.8915 10.6489 11.0485 10.7739L13.8685 12.9889L16.3355 9.80587C16.5895 9.47687 17.0595 9.41587 17.3875 9.67187C17.7155 9.92587 17.7755 10.3969 17.5215 10.7239L14.5915 14.5039C14.4695 14.6619 14.2895 14.7649 14.0915 14.7889C13.8915 14.8159 13.6935 14.7579 13.5355 14.6349L10.7175 12.4209L8.18653 15.7099C8.03853 15.9019 7.81653 16.0029 7.59153 16.0029Z" fill="currentColor"/>
<mask id="mask0_443_1306" style="mask-type:luminance" maskUnits="userSpaceOnUse" x="17" y="2" width="7" height="6">
<path fill-rule="evenodd" clip-rule="evenodd" d="M17.6699 2.00012H23.0139V7.34502H17.6699V2.00012Z" fill="white"/>
</mask>
<g mask="url(#mask0_443_1306)">
<path fill-rule="evenodd" clip-rule="evenodd" d="M20.3419 3.5C19.6959 3.5 19.1699 4.025 19.1699 4.672C19.1699 5.318 19.6959 5.845 20.3419 5.845C20.9879 5.845 21.5139 5.318 21.5139 4.672C21.5139 4.025 20.9879 3.5 20.3419 3.5ZM20.3419 7.345C18.8689 7.345 17.6699 6.146 17.6699 4.672C17.6699 3.198 18.8689 2 20.3419 2C21.8159 2 23.0139 3.198 23.0139 4.672C23.0139 6.146 21.8159 7.345 20.3419 7.345Z" fill="currentColor"/>
</g>
<mask id="mask1_443_1306" style="mask-type:luminance" maskUnits="userSpaceOnUse" x="2" y="2" width="21" height="21">
<path fill-rule="evenodd" clip-rule="evenodd" d="M2.375 2.84216H22.2369V22.7032H2.375V2.84216Z" fill="white"/>
</mask>
<g mask="url(#mask1_443_1306)">
<path fill-rule="evenodd" clip-rule="evenodd" d="M16.608 22.7032H8.004C4.637 22.7032 2.375 20.3382 2.375 16.8182V8.73616C2.375 5.21116 4.637 2.84216 8.004 2.84216H15.272C15.686 2.84216 16.022 3.17816 16.022 3.59216C16.022 4.00616 15.686 4.34216 15.272 4.34216H8.004C5.496 4.34216 3.875 6.06616 3.875 8.73616V16.8182C3.875 19.5232 5.457 21.2032 8.004 21.2032H16.608C19.116 21.2032 20.737 19.4822 20.737 16.8182V9.77916C20.737 9.36516 21.073 9.02916 21.487 9.02916C21.901 9.02916 22.237 9.36516 22.237 9.77916V16.8182C22.237 20.3382 19.975 22.7032 16.608 22.7032Z" fill="currentColor"/>
</g>
</svg>
