<svg width="25" height="24" viewBox="0 0 25 24" fill="none" xmlns="http://www.w3.org/2000/svg">
<path fill-rule="evenodd" clip-rule="evenodd" d="M17.5551 4.41C17.5551 3.08 18.6351 2 19.9651 2C21.2951 2 22.3751 3.08 22.3751 4.41C22.3751 5.74 21.2951 6.82 19.9651 6.82C18.6351 6.82 17.5551 5.74 17.5551 4.41ZM13.705 14.7593L16.595 11.0303L16.555 11.0503C16.715 10.8303 16.745 10.5503 16.635 10.3003C16.526 10.0503 16.285 9.8803 16.026 9.8603C15.755 9.8303 15.486 9.9503 15.325 10.1703L12.906 13.3003L10.135 11.1203C9.965 10.9903 9.765 10.9393 9.565 10.9603C9.366 10.9903 9.186 11.0993 9.065 11.2593L6.106 15.1103L6.045 15.2003C5.875 15.5193 5.955 15.9293 6.255 16.1503C6.395 16.2403 6.545 16.3003 6.715 16.3003C6.946 16.3103 7.165 16.1893 7.305 16.0003L9.815 12.7693L12.665 14.9103L12.755 14.9693C13.075 15.1393 13.475 15.0603 13.705 14.7593ZM15.825 3.7803C15.785 4.0303 15.765 4.2803 15.765 4.5303C15.765 6.7803 17.585 8.5993 19.825 8.5993C20.075 8.5993 20.315 8.5703 20.565 8.5303V16.5993C20.565 19.9903 18.565 22.0003 15.165 22.0003H7.776C4.375 22.0003 2.375 19.9903 2.375 16.5993V9.2003C2.375 5.8003 4.375 3.7803 7.776 3.7803H15.825Z" fill="currentColor"/>
</svg>
