<svg width="25" height="24" viewBox="0 0 25 24" fill="none" xmlns="http://www.w3.org/2000/svg">
<path fill-rule="evenodd" clip-rule="evenodd" d="M16.7833 8.23285C16.7833 10.5825 14.9101 12.4666 12.574 12.4666C10.2379 12.4666 8.36474 10.5825 8.36474 8.23285C8.36474 5.88227 10.2379 4 12.574 4C14.9101 4 16.7833 5.88227 16.7833 8.23285ZM12.574 20C9.14285 20 6.21309 19.456 6.21309 17.2802C6.21309 15.1034 9.12404 14.5396 12.574 14.5396C16.0052 14.5396 18.935 15.0836 18.935 17.2604C18.935 19.4362 16.024 20 12.574 20ZM18.5821 8.30922C18.5821 9.50703 18.2248 10.6229 17.598 11.5505C17.5336 11.646 17.5909 11.7748 17.7046 11.7946C17.8613 11.8216 18.0234 11.8369 18.1881 11.8414C19.8312 11.8846 21.3059 10.821 21.7133 9.21974C22.3168 6.84123 20.5448 4.7059 18.2884 4.7059C18.0431 4.7059 17.8085 4.73201 17.5801 4.77884C17.5488 4.78605 17.5157 4.80046 17.4978 4.82838C17.4763 4.8626 17.4924 4.90853 17.5139 4.93825C18.1917 5.8938 18.5821 7.05918 18.5821 8.30922ZM21.3032 13.5126C22.4073 13.7296 23.1334 14.1727 23.4343 14.8166C23.6886 15.3453 23.6886 15.9586 23.4343 16.4864C22.974 17.4851 21.4904 17.8058 20.9137 17.8886C20.7946 17.9066 20.6988 17.8031 20.7114 17.6833C21.0059 14.9157 18.6627 13.6035 18.0565 13.3018C18.0305 13.2883 18.0252 13.2676 18.0278 13.255C18.0296 13.246 18.0404 13.2316 18.0601 13.2289C19.3718 13.2046 20.7821 13.3847 21.3032 13.5126ZM7.06211 11.8413C7.22686 11.8368 7.38804 11.8224 7.54563 11.7945C7.65934 11.7747 7.71665 11.6459 7.65218 11.5504C7.0254 10.6228 6.66813 9.50694 6.66813 8.30913C6.66813 7.05909 7.05853 5.89371 7.73635 4.93816C7.75784 4.90844 7.77306 4.86251 7.75246 4.82829C7.73456 4.80127 7.70053 4.78596 7.67009 4.77875C7.44086 4.73192 7.20627 4.70581 6.96093 4.70581C4.70451 4.70581 2.93251 6.84114 3.53691 9.21965C3.94432 10.8209 5.41905 11.8845 7.06211 11.8413ZM7.22194 13.2545C7.22462 13.268 7.21925 13.2878 7.19418 13.3022C6.5871 13.6039 4.24383 14.9161 4.53842 17.6827C4.55095 17.8034 4.45604 17.9061 4.33695 17.889C3.76031 17.8061 2.27663 17.4855 1.81639 16.4867C1.5612 15.9581 1.5612 15.3457 1.81639 14.817C2.11725 14.1731 2.84252 13.73 3.94656 13.512C4.46858 13.385 5.87794 13.2049 7.1906 13.2292C7.2103 13.2319 7.22015 13.2464 7.22194 13.2545Z" fill="#A0E86F"/>
</svg>
