<svg width="25" height="24" viewBox="0 0 25 24" fill="none" xmlns="http://www.w3.org/2000/svg">
<path fill-rule="evenodd" clip-rule="evenodd" d="M12.4846 13.138H12.5116C15.0316 13.138 17.0806 11.088 17.0806 8.569C17.0806 6.05 15.0316 4 12.5116 4C9.99264 4 7.94364 6.05 7.94364 8.566C7.93864 9.783 8.40764 10.929 9.26564 11.792C10.1216 12.656 11.2646 13.134 12.4846 13.138ZM9.44364 8.569C9.44364 6.877 10.8196 5.5 12.5116 5.5C14.2036 5.5 15.5806 6.877 15.5806 8.569C15.5806 10.262 14.2036 11.638 12.5116 11.638H12.4866C11.6706 11.635 10.9046 11.314 10.3296 10.735C9.75464 10.156 9.44064 9.389 9.44364 8.569Z" fill="#9E9E9E"/>
<path d="M17.7697 11.5005C17.8227 11.8755 18.1437 12.1465 18.5117 12.1465C18.5457 12.1465 18.5807 12.1445 18.6157 12.1395C20.3907 11.8905 21.7317 10.3505 21.7357 8.55551C21.7357 6.77251 20.4587 5.26851 18.7007 4.97951C18.2897 4.91451 17.9067 5.18851 17.8387 5.59751C17.7717 6.00651 18.0487 6.39251 18.4567 6.45951C19.4877 6.62851 20.2357 7.51051 20.2357 8.55351C20.2337 9.60551 19.4487 10.5075 18.4087 10.6535C17.9977 10.7105 17.7127 11.0895 17.7697 11.5005Z" fill="#9E9E9E"/>
<path d="M20.7853 18.0482C20.8993 18.3472 21.1843 18.5312 21.4863 18.5312C21.5753 18.5312 21.6653 18.5152 21.7533 18.4822C23.1833 17.9372 23.3973 16.9442 23.3973 16.4002C23.3973 15.5092 22.8883 14.3712 20.4653 14.0082C20.0523 13.9552 19.6723 14.2282 19.6113 14.6382C19.5503 15.0492 19.8333 15.4302 20.2423 15.4922C21.3403 15.6562 21.8973 15.9622 21.8973 16.4002C21.8973 16.5372 21.8973 16.8222 21.2193 17.0802C20.8323 17.2272 20.6373 17.6612 20.7853 18.0482Z" fill="#9E9E9E"/>
<path fill-rule="evenodd" clip-rule="evenodd" d="M12.5116 20.7909C10.8526 20.7909 5.80261 20.7909 5.80261 17.5959C5.80261 14.4139 10.8526 14.4139 12.5116 14.4139C14.1706 14.4139 19.2196 14.4139 19.2196 17.6129C19.2196 20.7909 14.3466 20.7909 12.5116 20.7909ZM12.5116 15.9139C10.1356 15.9139 7.30261 16.2059 7.30261 17.5959C7.30261 18.9969 10.1356 19.2909 12.5116 19.2909C14.8876 19.2909 17.7196 18.9999 17.7196 17.6129C17.7196 16.2089 14.8876 15.9139 12.5116 15.9139Z" fill="#9E9E9E"/>
<path d="M6.5106 12.1465C6.4766 12.1465 6.4416 12.1445 6.4066 12.1395C4.6316 11.8905 3.2916 10.3505 3.2876 8.55745C3.2876 6.77245 4.5646 5.26845 6.3226 4.97945C6.7436 4.91345 7.1166 5.19045 7.1846 5.59745C7.2516 6.00645 6.9746 6.39245 6.5666 6.45945C5.5356 6.62845 4.7876 7.51045 4.7876 8.55545C4.7896 9.60545 5.5746 10.5085 6.6136 10.6535C7.0246 10.7105 7.3096 11.0894 7.2526 11.5005C7.1996 11.8755 6.8786 12.1465 6.5106 12.1465Z" fill="#9E9E9E"/>
<path d="M3.27 18.4822C3.358 18.5152 3.448 18.5312 3.537 18.5312C3.839 18.5312 4.124 18.3472 4.238 18.0482C4.386 17.6612 4.191 17.2272 3.804 17.0802C3.125 16.8212 3.125 16.5372 3.125 16.4002C3.125 15.9622 3.682 15.6562 4.78 15.4922C5.189 15.4302 5.472 15.0492 5.411 14.6382C5.349 14.2282 4.971 13.9562 4.558 14.0082C2.134 14.3712 1.625 15.5102 1.625 16.4002C1.625 16.9432 1.839 17.9362 3.27 18.4822Z" fill="#9E9E9E"/>
</svg>
