<svg width="25" height="24" viewBox="0 0 25 24" fill="none" xmlns="http://www.w3.org/2000/svg">
<path fill-rule="evenodd" clip-rule="evenodd" d="M9.20312 16.1357C9.20312 15.7215 9.53891 15.3857 9.95312 15.3857H15.7681C16.1823 15.3857 16.5181 15.7215 16.5181 16.1357C16.5181 16.55 16.1823 16.8857 15.7681 16.8857H9.95312C9.53891 16.8857 9.20312 16.55 9.20312 16.1357Z" fill="#9E9E9E"/>
<path fill-rule="evenodd" clip-rule="evenodd" d="M7.68525 5.97765C7.2727 6.35978 6.90229 6.68822 6.57301 6.97845C6.52654 7.01941 6.48103 7.05949 6.43644 7.09875C6.15753 7.34435 5.91464 7.55824 5.69646 7.75963C5.19115 8.22608 4.87196 8.57827 4.64624 8.97216C4.19374 9.76176 4.02539 10.869 4.02539 13.713C4.02539 15.7691 4.14845 17.2451 4.42655 18.3153C4.69954 19.3658 5.10651 19.9679 5.64561 20.3548C6.20865 20.759 7.01243 20.9997 8.22284 21.1245C9.43205 21.2491 10.9404 21.25 12.8614 21.25C14.7824 21.25 16.2907 21.2491 17.4999 21.1245C18.7104 20.9997 19.5141 20.759 20.0772 20.3548C20.6163 19.9679 21.0232 19.3658 21.2962 18.3153C21.5743 17.2451 21.6974 15.7691 21.6974 13.713C21.6974 10.8689 21.5293 9.76166 21.077 8.97204C20.8514 8.57818 20.5323 8.22601 20.0271 7.75958C19.8088 7.55801 19.5657 7.34391 19.2865 7.09801C19.2421 7.05898 19.1969 7.01914 19.1507 6.97843C18.8215 6.6882 18.451 6.35976 18.0385 5.97762C17.7943 5.78041 17.5413 5.56703 17.2791 5.34588C16.708 4.86414 16.0931 4.34554 15.4298 3.87695C14.4449 3.18118 13.5529 2.75 12.8334 2.75C12.1163 2.75 11.2364 3.18121 10.2645 3.87803C9.63023 4.33278 9.05 4.827 8.50481 5.29137C8.22315 5.53128 7.95083 5.76323 7.68525 5.97765ZM9.39051 2.65897C10.3908 1.94179 11.6075 1.25 12.8334 1.25C14.0559 1.25 15.2824 1.93632 16.2952 2.6518C17.0112 3.15759 17.7195 3.75449 18.3124 4.25416C18.5653 4.46729 18.7972 4.66274 18.9998 4.82587C19.0134 4.83681 19.0266 4.84822 19.0394 4.86008C19.4454 5.23662 19.8108 5.5607 20.1426 5.85318C20.1876 5.89284 20.2321 5.93205 20.2761 5.97083C20.554 6.21553 20.8122 6.4429 21.0446 6.65748C21.5839 7.15537 22.0378 7.63157 22.3786 8.22646C23.059 9.41434 23.1974 10.9261 23.1974 13.713C23.1974 15.8004 23.0756 17.432 22.748 18.6926C22.4154 19.9727 21.8559 20.9245 20.9519 21.5734C20.0718 22.2051 18.9557 22.4824 17.6537 22.6166C16.3591 22.75 14.7748 22.75 12.8985 22.75H12.8242C10.948 22.75 9.3637 22.75 8.06904 22.6166C6.76704 22.4824 5.65101 22.2051 4.77092 21.5734C3.8669 20.9245 3.30743 19.9727 2.97476 18.6926C2.6472 17.432 2.52539 15.8004 2.52539 13.713C2.52539 10.926 2.66404 9.41424 3.34479 8.22634C3.68569 7.63148 4.13969 7.1553 4.67904 6.65743C4.91122 6.4431 5.16915 6.216 5.4467 5.97161C5.49104 5.93257 5.53587 5.89309 5.58119 5.85316C5.913 5.56069 6.27838 5.23661 6.6844 4.86008C6.69723 4.84818 6.71047 4.83674 6.7241 4.82577C6.93622 4.65502 7.18378 4.44454 7.45532 4.21367C8.0293 3.72566 8.71044 3.14655 9.39051 2.65897Z" fill="#9E9E9E"/>
</svg>
