<svg width="25" height="24" viewBox="0 0 25 24" fill="none" xmlns="http://www.w3.org/2000/svg">
<path fill-rule="evenodd" clip-rule="evenodd" d="M15.7831 16.885H9.96806C9.55406 16.885 9.21806 16.549 9.21806 16.135C9.21806 15.721 9.55406 15.385 9.96806 15.385H15.7831C16.1971 15.385 16.5331 15.721 16.5331 16.135C16.5331 16.549 16.1971 16.885 15.7831 16.885ZM20.1241 6.158C19.7611 5.838 19.3481 5.476 18.8561 5.021C18.6331 4.841 18.3891 4.635 18.1301 4.417C16.6701 3.186 14.6701 1.5 12.8471 1.5C11.0451 1.5 9.17406 3.092 7.67106 4.371C7.39306 4.607 7.13306 4.829 6.86806 5.044C6.40206 5.476 5.98906 5.839 5.62506 6.16C3.23806 8.261 2.78906 8.812 2.78906 13.713C2.78906 22.5 5.33006 22.5 12.8751 22.5C20.4191 22.5 22.9611 22.5 22.9611 13.713C22.9611 8.811 22.5121 8.26 20.1241 6.158Z" fill="#A0E86F"/>
</svg>
