<svg width="25" height="24" viewBox="0 0 25 24" fill="none" xmlns="http://www.w3.org/2000/svg">
<path fill-rule="evenodd" clip-rule="evenodd" d="M12.014 12.6188H12.046C14.974 12.6188 17.355 10.2378 17.355 7.30976C17.355 4.38176 14.974 1.99976 12.046 1.99976C9.11702 1.99976 6.73502 4.38176 6.73502 7.30676C6.72502 10.2268 9.09202 12.6098 12.014 12.6188ZM8.16302 7.30976C8.16302 5.16876 9.90502 3.42776 12.046 3.42776C14.186 3.42776 15.927 5.16876 15.927 7.30976C15.927 9.44976 14.186 11.1918 12.046 11.1918H12.017C9.88502 11.1838 8.15602 9.44376 8.16302 7.30976Z" fill="currentColor" />
<path fill-rule="evenodd" clip-rule="evenodd" d="M4.125 18.1731C4.125 21.8701 10.087 21.8701 12.046 21.8701C15.445 21.8701 19.965 21.4891 19.965 18.1931C19.965 14.4961 14.005 14.4961 12.046 14.4961C8.646 14.4961 4.125 14.8771 4.125 18.1731ZM5.625 18.1731C5.625 16.7281 7.785 15.9961 12.046 15.9961C16.306 15.9961 18.465 16.7351 18.465 18.1931C18.465 19.6381 16.306 20.3701 12.046 20.3701C7.785 20.3701 5.625 19.6311 5.625 18.1731Z" fill="currentColor"/>
</svg>


